<svg width="400" height="225" viewBox="0 0 400 225" fill="none" xmlns="http://www.w3.org/2000/svg">
  <rect width="400" height="225" fill="#0f172a"/>
  
  <!-- Header -->
  <rect x="20" y="15" width="360" height="30" rx="4" fill="#4f46e5"/>
  <text x="40" y="35" font-family="Arial" font-size="14" font-weight="bold" fill="#e2e8f0">Vulnerability Assessment Report</text>
  
  <!-- Report Content -->
  <rect x="20" y="55" width="360" height="155" rx="4" fill="#1e293b" stroke="#334155" stroke-width="1"/>
  
  <!-- Severity Chart -->
  <circle cx="95" cy="120" r="45" fill="#0f172a" stroke="#334155" stroke-width="1"/>
  
  <!-- Chart Segments -->
  <path d="M95 75 A45 45 0 0 1 138.53 102.5 L95 120 Z" fill="#EF4444" />
  <path d="M95 75 A45 45 0 0 0 51.47 102.5 L95 120 Z" fill="#F59E0B" />
  <path d="M95 120 L138.53 102.5 A45 45 0 0 1 138.53 137.5 L95 120 Z" fill="#10B981" />
  <path d="M95 120 L51.47 102.5 A45 45 0 0 0 51.47 137.5 L95 120 Z" fill="#818cf8" />
  <path d="M95 120 L138.53 137.5 A45 45 0 0 1 95 165 L95 120 Z" fill="#14B8A6" />
  <path d="M95 120 L51.47 137.5 A45 45 0 0 0 95 165 L95 120 Z" fill="#6366F1" />
  
  <circle cx="95" cy="120" r="20" fill="#0f172a" stroke="#334155" stroke-width="1"/>
  <text x="75" y="125" font-family="Arial" font-size="13" font-weight="bold" fill="#e2e8f0">78%</text>
  
  <!-- Legend -->
  <rect x="160" y="75" width="10" height="10" rx="2" fill="#EF4444"/>
  <text x="175" y="85" font-family="Arial" font-size="11" fill="#e2e8f0">Critical (12%)</text>
  
  <rect x="160" y="95" width="10" height="10" rx="2" fill="#F59E0B"/>
  <text x="175" y="105" font-family="Arial" font-size="11" fill="#e2e8f0">High (18%)</text>
  
  <rect x="160" y="115" width="10" height="10" rx="2" fill="#10B981"/>
  <text x="175" y="125" font-family="Arial" font-size="11" fill="#e2e8f0">Medium (28%)</text>
  
  <rect x="160" y="135" width="10" height="10" rx="2" fill="#818cf8"/>
  <text x="175" y="145" font-family="Arial" font-size="11" fill="#e2e8f0">Low (22%)</text>
  
  <rect x="160" y="155" width="10" height="10" rx="2" fill="#14B8A6"/>
  <text x="175" y="165" font-family="Arial" font-size="11" fill="#e2e8f0">Info (10%)</text>
  
  <rect x="160" y="175" width="10" height="10" rx="2" fill="#6366F1"/>
  <text x="175" y="185" font-family="Arial" font-size="11" fill="#e2e8f0">Passed (10%)</text>
  
  <!-- Summary Stats -->
  <rect x="270" y="75" width="90" height="20" rx="2" fill="#0f172a" stroke="#334155" stroke-width="1"/>
  <text x="280" y="89" font-family="Arial" font-size="12" fill="#EF4444">8 Critical Issues</text>
  
  <rect x="270" y="105" width="90" height="20" rx="2" fill="#0f172a" stroke="#334155" stroke-width="1"/>
  <text x="280" y="119" font-family="Arial" font-size="12" fill="#F59E0B">12 High Risks</text>
  
  <rect x="270" y="135" width="90" height="20" rx="2" fill="#0f172a" stroke="#334155" stroke-width="1"/>
  <text x="280" y="149" font-family="Arial" font-size="12" fill="#10B981">18 Mediums</text>
  
  <rect x="270" y="165" width="90" height="35" rx="2" fill="#4f46e5" fill-opacity="0.1" stroke="#818cf8" stroke-width="1"/>
  <text x="280" y="185" font-family="Arial" font-size="11" font-weight="bold" fill="#818cf8">View Complete Report</text>
</svg> 