<svg width="400" height="225" viewBox="0 0 400 225" fill="none" xmlns="http://www.w3.org/2000/svg">
  <rect width="400" height="225" fill="#0f172a"/>
  <!-- Top Navigation Bar -->
  <rect x="20" y="15" width="360" height="30" rx="4" fill="#4f46e5"/>
  <circle cx="35" cy="30" r="8" fill="#e2e8f0" fill-opacity="0.7"/>
  <rect x="55" y="26" width="30" height="8" rx="2" fill="#e2e8f0" fill-opacity="0.7"/>
  <rect x="95" y="26" width="40" height="8" rx="2" fill="#e2e8f0" fill-opacity="0.7"/>
  <rect x="145" y="26" width="40" height="8" rx="2" fill="#e2e8f0" fill-opacity="0.7"/>
  
  <!-- Sidebar -->
  <rect x="20" y="55" width="80" height="155" rx="4" fill="#030712"/>
  <rect x="35" y="70" width="50" height="8" rx="2" fill="#818cf8"/>
  <rect x="35" y="90" width="50" height="8" rx="2" fill="#94a3b8"/>
  <rect x="35" y="110" width="50" height="8" rx="2" fill="#94a3b8"/>
  <rect x="35" y="130" width="50" height="8" rx="2" fill="#94a3b8"/>
  <rect x="35" y="150" width="50" height="8" rx="2" fill="#94a3b8"/>
  <rect x="35" y="170" width="50" height="8" rx="2" fill="#94a3b8"/>
  
  <!-- Main Content Area - Security Dashboard -->
  <rect x="110" y="55" width="270" height="155" rx="4" fill="#1e293b" stroke="#334155" stroke-width="1"/>
  
  <!-- Title -->
  <rect x="125" y="65" width="120" height="10" rx="2" fill="#818cf8" fill-opacity="0.7"/>
  
  <!-- Security Score Gauge -->
  <circle cx="160" cy="115" r="30" fill="#4f46e5" fill-opacity="0.1" stroke="#818cf8" stroke-width="3" stroke-dasharray="150 188" stroke-dashoffset="30"/>
  <text x="153" y="120" font-family="Arial" font-size="14" font-weight="bold" fill="#818cf8">78%</text>
  <rect x="130" y="155" width="60" height="8" rx="2" fill="#94a3b8"/>
  
  <!-- Vulnerability Stats -->
  <rect x="220" y="85" width="145" height="45" rx="4" fill="#030712" stroke="#334155" stroke-width="1"/>
  <rect x="230" y="95" width="60" height="8" rx="2" fill="#EF4444"/>
  <rect x="300" y="95" width="20" height="8" rx="2" fill="#EF4444"/>
  <rect x="230" y="110" width="60" height="8" rx="2" fill="#F59E0B"/>
  <rect x="300" y="110" width="30" height="8" rx="2" fill="#F59E0B"/>
  
  <!-- Network Stats -->
  <rect x="220" y="140" width="145" height="60" rx="4" fill="#030712" stroke="#334155" stroke-width="1"/>
  <!-- Network Graph Line -->
  <path d="M230 185 L245 175 L260 180 L275 165 L290 170 L305 155 L320 160 L335 145 L350 150" stroke="#818cf8" stroke-width="2" stroke-linecap="round" fill="none"/>
  <!-- Graph Labels -->
  <rect x="230" y="150" width="40" height="6" rx="2" fill="#94a3b8"/>
  <rect x="310" y="150" width="40" height="6" rx="2" fill="#94a3b8"/>
</svg> 