<svg xmlns="http://www.w3.org/2000/svg" width="120" height="120" viewBox="0 0 100 100" fill="none">
  <!-- Shield background -->
  <path d="M50 5L10 20V45C10 70 30 85 50 95C70 85 90 70 90 45V20L50 5Z" fill="#030712" stroke="#4f46e5" stroke-width="2"/>
  
  <!-- Inner shield -->
  <path d="M50 12L18 24V45C18 66 34 78 50 86C66 78 82 66 82 45V24L50 12Z" fill="#0f172a" stroke="#4f46e5" stroke-width="1.5"/>
  
  <!-- "K" letter design -->
  <path d="M36 35H40V50H36V35Z" fill="#818cf8"/>
  <path d="M54 35H58L46 50H42L54 35Z" fill="#818cf8"/>
  <path d="M36 65H40V50H36V65Z" fill="#818cf8"/>
  <path d="M42 50H46L58 65H54L42 50Z" fill="#818cf8"/>
  
  <!-- Circuit lines -->
  <path d="M65 35C68 38 70 42 70 45C70 48 68 52 65 55" stroke="#818cf8" stroke-width="1.5" stroke-linecap="round" stroke-dasharray="2 2"/>
  <circle cx="65" cy="35" r="2.5" fill="#4f46e5"/>
  <circle cx="65" cy="55" r="2.5" fill="#4f46e5"/>
  
  <path d="M30 30C25 37 25 53 30 60" stroke="#818cf8" stroke-width="1.5" stroke-linecap="round" stroke-dasharray="2 2"/>
  <circle cx="30" cy="30" r="2.5" fill="#4f46e5"/>
  <circle cx="30" cy="60" r="2.5" fill="#4f46e5"/>
  
  <!-- Connection nodes -->
  <circle cx="46" cy="25" r="3" fill="#4f46e5"/>
  <circle cx="54" cy="25" r="3" fill="#4f46e5"/>
  <path d="M46 25H54" stroke="#818cf8" stroke-width="1.5"/>
  <path d="M46 25V35" stroke="#818cf8" stroke-width="1.5" stroke-dasharray="2 2"/>
  <path d="M54 25V35" stroke="#818cf8" stroke-width="1.5" stroke-dasharray="2 2"/>
  
  <circle cx="46" cy="75" r="3" fill="#4f46e5"/>
  <circle cx="54" cy="75" r="3" fill="#4f46e5"/>
  <path d="M46 75H54" stroke="#818cf8" stroke-width="1.5"/>
  <path d="M46 65V75" stroke="#818cf8" stroke-width="1.5" stroke-dasharray="2 2"/>
  <path d="M54 65V75" stroke="#818cf8" stroke-width="1.5" stroke-dasharray="2 2"/>
</svg> 